<svg xmlns="http://www.w3.org/2000/svg" width="350" height="350" viewBox="0.5 568.5 350 350"><path fill="#071b36" d="M190.813 901.065c-3.017 0-5.942-1.188-8.045-3.2-4.023-3.748-10.33-3.748-14.354 0-2.47 2.378-5.852 3.566-9.326 3.11-3.474-.367-6.583-2.195-8.594-5.03-3.2-4.48-9.417-5.76-14.08-3.017-2.834 1.828-6.4 2.194-9.783 1.097-3.2-1.006-5.942-3.565-7.222-6.674-2.194-5.12-7.954-7.68-13.166-5.85-3.2 1.096-6.766.822-9.783-.915-2.927-1.737-5.03-4.663-5.67-8.046-1.096-5.486-6.216-9.235-11.61-8.504-3.475.457-6.858-.64-9.418-2.926-2.56-2.377-4.023-5.577-4.023-9.143.09-5.577-4.115-10.24-9.6-10.697-3.384-.274-6.492-2.012-8.687-4.846-2.01-2.65-2.743-6.31-2.01-9.69 1.28-5.305-1.92-10.88-7.224-12.436-3.293-1.006-6.035-3.383-7.407-6.583-1.37-3.108-1.37-6.674.092-9.874 2.286-4.937.274-10.97-4.48-13.714-3.018-1.645-5.21-4.57-5.852-7.862-.64-3.383.09-6.856 2.194-9.6 3.383-4.39 2.743-10.697-1.463-14.263-2.56-2.285-4.114-5.577-4.114-9.05 0-3.476 1.463-6.768 4.114-9.053 4.206-3.657 4.846-9.874 1.463-14.263-2.103-2.47-2.926-6.126-2.194-9.6.823-3.475 2.926-6.31 5.943-7.863 4.846-2.65 6.766-8.594 4.48-13.713-1.463-3.2-1.463-6.766-.09-9.875 1.46-3.108 4.113-5.485 7.404-6.582 5.21-1.646 8.412-7.132 7.223-12.436-.73-3.29 0-6.947 2.01-9.69.093-.092.184-.274.275-.366s.183-.273.274-.365l.457-.457.73 1.188-.09.184c-.093.183-.184.274-.275.365l-.09.092c-1.83 2.56-2.47 5.76-1.83 8.686 1.463 6.127-2.103 12.253-8.046 14.08-2.927.915-5.395 3.02-6.584 5.76-1.28 2.835-1.188 5.944.092 8.778 2.65 5.67.457 12.435-5.03 15.45-2.65 1.373-4.57 4.024-5.21 7.042-.64 3.107.09 6.125 1.92 8.594 3.75 4.938 2.926 12.068-1.737 16.183-2.376 2.012-3.656 4.938-3.656 7.954 0 3.02 1.372 5.944 3.657 7.956 4.755 4.113 5.486 11.245 1.738 16.183-1.83 2.376-2.56 5.484-1.92 8.594.64 2.925 2.47 5.484 5.21 7.04 5.396 3.017 7.59 9.874 5.03 15.45-1.28 2.835-1.372 5.943-.092 8.777 1.19 2.744 3.566 4.847 6.583 5.76 5.942 1.83 9.508 8.048 8.045 14.08-.73 3.02-.09 6.127 1.737 8.596 1.92 2.47 4.572 4.022 7.59 4.298 6.216.548 10.97 5.85 10.88 12.068 0 3.108 1.28 5.942 3.473 8.045 2.194 2.012 5.21 3.018 8.32 2.65 6.217-.73 11.977 3.385 13.074 9.51.64 3.018 2.376 5.486 5.12 7.132 2.56 1.553 5.76 1.827 8.685.913 5.852-2.012 12.343.914 14.812 6.674 1.097 2.835 3.474 4.938 6.4 5.943s6.034.64 8.686-1.006c5.303-3.2 12.25-1.737 15.91 3.383 1.828 2.56 4.57 4.114 7.496 4.39 3.2.273 6.216-.732 8.32-2.835 2.376-2.104 5.118-3.108 8.136-3.108s5.852 1.097 8.046 3.108c2.285 2.103 5.21 3.108 8.32 2.834 3.018-.274 5.76-1.828 7.497-4.39 1.28-1.827 3.107-3.2 5.027-4.113 2.194-1.006 4.754-1.28 7.13-.73 1.282.273 2.562.73 3.75 1.37 2.65 1.555 5.76 1.92 8.687 1.006 2.834-.915 5.12-3.11 6.4-5.943 2.376-5.76 8.867-8.686 14.81-6.675 2.835 1.006 6.126.64 8.687-.914 2.744-1.463 4.572-4.022 5.12-7.13 1.19-6.127 6.95-10.333 13.166-9.51 3.018.365 6.035-.55 8.32-2.65 2.194-2.013 3.475-4.94 3.475-8.047-.09-6.308 4.664-11.61 10.88-12.067 3.11-.274 5.853-1.828 7.59-4.297 1.828-2.56 2.47-5.67 1.736-8.595-1.463-6.125 2.104-12.25 8.047-14.08 2.926-.913 5.394-3.016 6.582-5.76 1.28-2.834 1.19-5.942-.092-8.776-2.65-5.67-.457-12.435 5.03-15.452 2.65-1.37 4.57-4.02 5.21-7.04.64-3.108-.09-6.125-1.92-8.594-3.748-4.937-2.926-12.068 1.737-16.183 2.377-2.012 3.657-4.938 3.657-7.954 0-3.017-1.37-5.94-3.657-7.953-4.754-4.115-5.485-11.246-1.737-16.184 1.83-2.377 2.56-5.485 1.92-8.594-.64-2.927-2.468-5.487-5.21-7.04-5.396-3.018-7.59-9.875-5.03-15.453 1.28-2.65 1.28-5.942.092-8.776-1.188-2.742-3.565-4.845-6.582-5.76-5.67-1.645-9.326-7.588-8.23-13.44v-.09l2.47-5.304-1.006 5.03c-1.28 5.302 1.92 10.878 7.223 12.433 3.29 1.005 6.033 3.382 7.405 6.582 1.37 3.108 1.37 6.675-.09 9.874-2.287 4.938-.276 10.972 4.478 13.715 3.017 1.647 5.21 4.572 5.852 7.864.64 3.383-.092 6.856-2.194 9.6-3.382 4.39-2.742 10.697 1.464 14.263 2.56 2.286 4.114 5.577 4.114 9.052 0 3.473-1.463 6.765-4.114 9.05-4.206 3.75-4.755 10.057-1.28 14.264 2.103 2.56 2.926 6.125 2.194 9.6-.823 3.475-2.926 6.31-5.943 7.863-4.846 2.65-6.766 8.594-4.48 13.714 1.464 3.2 1.464 6.767.092 9.875-1.463 3.108-4.113 5.486-7.405 6.583-5.212 1.646-8.41 7.132-7.223 12.435.73 3.29 0 6.948-2.013 9.69-2.103 2.835-5.303 4.572-8.686 4.847-5.484.457-9.69 5.12-9.6 10.697 0 3.565-1.463 6.856-4.022 9.143-2.56 2.285-5.942 3.29-9.417 2.926-5.484-.64-10.604 3.108-11.702 8.503-.64 3.382-2.742 6.398-5.668 8.044-3.018 1.737-6.583 2.104-9.783.915-5.21-1.738-10.97.82-13.166 5.85-1.37 3.11-4.02 5.578-7.222 6.675-3.29 1.098-6.857.64-9.783-1.097-1.005-.64-2.193-1.098-3.29-1.28-2.195-.457-4.39-.183-6.4.64-1.737.73-3.2 2.012-4.39 3.657-2.01 2.834-5.12 4.663-8.594 5.028-.18.272-.82.272-1.097.272zM175.27 881.5c-36.845 0-71.497-14.354-97.645-40.41-26.057-26.15-40.412-60.802-40.412-97.647 0-26.33 7.406-51.84 21.395-73.874l.366-.64.823 1.37-.183.274c-13.806 21.76-21.03 46.994-21.03 72.868 0 36.39 14.264 70.766 40.138 96.64 25.783 25.875 60.068 40.138 96.64 40.138 36.48 0 70.857-14.263 96.64-40.137 10.972-10.972 19.933-23.59 26.515-37.486l.092-.092.182-.182c7.132-14.903 11.43-30.994 12.8-47.818.275-4.297.457-7.77.457-11.153 0-22.767-5.67-45.35-16.458-65.28l-.09-.274.822-1.37.365.73c10.97 20.205 16.82 43.062 16.82 66.103 0 3.384-.182 7.133-.456 11.338l-.09 1.098c-1.464 16.183-5.578 31.635-12.436 46.08l-.092.092-.183.182c-6.948 14.446-16.09 27.52-27.43 38.766-26.146 26.33-60.706 40.684-97.552 40.684zm2.196-22.31l-.092.093v-.366l-.092.092-.09-.185-.367-.64-.365-.73h.092l-6.4-11.247-9.417 5.212-.184.55-.456-.184-.458.273-.183-.458-.183-.092v-.182l.09-.184-4.205-12.434-6.857 2.01-.274.458-.366-.274-.366.092-.09-.457-.275-.185.092-.182.09-.092-1.463-6.582-8.777.274v-.73l-.183-.093.09-.092.092-.092.09-8.777h.367l22.034-20.115h-.273l1.006-1.097c.366-1.098.64-2.47.823-4.206l-.274-.274.365-.274c.092-1.37.184-3.017.184-4.937V735.76h7.68v60.71l4.755 3.2v-64h8.23v64l4.936-3.384V735.67h7.772v57.142c0 2.012 0 3.75.183 5.304l.275.183-.184.09c.184 1.83.457 3.292 1.006 4.48l.274.64 13.074 12.16-.183.184 9.05 8.23v8.32l.275.364-.09.092-.185.182v.64h-.822l-.092.093-.092-.092-4.204-.092v-.182l-3.2-.09-1.554 7.038v.092H208l-.184 1.006-.73-.183v-.09l-6.95-2.012-4.113 12.25v.092l-.366 1.006-1.005-.55-9.51-5.21-6.124 10.88-.275.73h.092l-.274.184v.184l-.273.09-.183.367v.366l-.09-.183-.093.274-.09.092v.272l-.093-.183-.27-.64zm.822-44.707l.092 41.143 5.852-10.24-5.21-30.994h-.367-.092l-.275.09zm-7.223 30.81l5.852 9.967V814.3h-.64l-5.212 30.994zm14.355-.182l8.686 4.664-11.978-36.114c-.55.183-1.188.365-1.736.457v.09l5.028 30.904zm-12.343-31.45l-11.886 36.022 8.687-4.754 5.12-30.812c-.55-.092-1.097-.274-1.737-.457v.09l-.183-.09zm10.24-.458l11.794 35.75.092-.367v.092l3.658-10.788-14.264-25.327c-.365.274-.73.458-1.28.64zm-26.97 24.595l3.748 11.063 11.886-35.658h-.09c-.367-.182-.824-.365-1.19-.548v.09l-.09-.09-14.264 25.143zm43.7-.366l5.853 1.74-18.56-28.16c-.274.182-.55.272-.73.456-.184.092-.366.183-.55.273l.092.09h-.184c-.09 0-.09.093-.182.093l14.262 25.508zm-32.09-26.42l-18.47 27.976 5.76-1.646 14.264-25.417c-.64-.275-1.188-.55-1.553-.914zm20.663-.824l18.56 28.25 1.28-5.575-18.47-23.68-.09.092v-.092l-.092.092c-.092 0-.092.09-.183.09-.365.276-.64.55-1.005.824zm-41.692 22.49l1.28 5.76 18.65-28.25.093-.09c-.364-.276-.73-.55-1.097-.824v.366l-.457-.458-18.468 23.497zm66.835-.548l2.285.092-.09-.092h.09l-3.383-3.748-19.84-21.852c-.64.64-1.188 1.188-1.828 1.646l14.72 18.65h-.09.09l3.932 5.03h4.205l-.092.274zm-74.514-.09h.182l-.09.09 6.124-.09.092-.184.183-.092 18.47-23.588c-.732-.55-1.28-1.098-1.738-1.646l-.182.274-.092-.09-22.95 25.325zm-.733-7.315l-.092 6.31 23.13-25.418c-.364-.365-.64-.73-1.005-1.098l-22.033 20.206zm73.326.64l5.028 5.577-.09-6.31-8.504-7.954-13.44-12.25-.09.182-.092-.183c-.274.366-.64.64-.915 1.005l16.73 18.378 1.373 1.554zm-35.29-12.252c.09 0 .272 0 .364.092l.457-.09.457-.092.275.182.274-.09c.273 0 .548-.092.73-.092.183-.092.366-.092.548-.092l1.92-.55-.09-.182.914-.183.457-.184c.364-.184.64-.274 1.005-.458l-.092-.092.092-.09-.092-.184h.55l.456-.274.182-.183.09.182 1.83-1.188.366-.274.365-.274v.092c.457-.366.914-.732 1.463-1.098l.365-.274v-.457l.275.273c.73-.64 1.372-1.28 2.103-1.92l.366-.274.274-.367.273-.365.093-.092c.366-.457.732-.822 1.098-1.28v-.09l.093-.093c-.366-.914-.64-2.01-.823-3.474-1.92 2.102-8.046 8.318-15.086 8.685h-1.097c-6.49-.366-12.343-5.67-14.995-8.32v.183l-.09-.09c-.184 1.28-.46 2.285-.732 3.107l.092.092-.092.092c.365.456.64.82 1.006 1.187l.092-.183.09.092.458.274.457.73c.64.64 1.372 1.28 2.103 2.012l.275.184.092.09.366.275c.457.366.822.642 1.28 1.007l.09-.092.274.274 1.006.365-.273.273c.457.275.914.55 1.28.823l.09-.182.732.55h.55l-.184.272.183.092c.274.092.548.274.73.365v-.09l.64.182.732.273v.092c.55.183 1.098.365 1.646.457l.09-.366.458.457.274.092h.548l.278.276zm-14.264-14.993c6.855 7.223 11.976 8.776 15.176 8.868v-.092c7.04 0 13.714-7.04 15.634-9.234-.09-1.463-.09-3.018-.09-4.847V736.95h-4.94v60.07l-6.308 4.297v.273h-1.37v-64.548h-5.486v64.548h-.824l-.09.092-.092-.092h-.366v-.273l-6.126-4.297v-59.978h-4.938v55.862c0 1.737-.09 3.292-.182 4.663h.09l-.09.183v.367zm81.004 42.24l-2.377-2.56-3.84.182-.457-.823 2.193-3.566-3.383-.364 4.755-7.863-8.595 10.515-1.828-3.017-4.57-1.37 2.65-2.835-4.938-3.292 4.663-3.565-4.297-3.75 15.177-7.86 2.194 2.193 2.56-.82-.547-1.647.09-.822v-.548c.093-.274.093-.64.276-.914.09-.184.18-.366.364-.64l.183-.64-.09-.092-11.34-7.224c-1.187.183-3.29.366-5.76.366-2.193 0-4.296-.184-6.033-.55l-.092.093-.274-.09c-1.006-.185-1.828-.55-2.56-.915-4.114-2.195-14.812-9.326-17.372-11.063h-.73v-51.017h7.68v45.074c.092.09.183.182.365.272 7.315 5.67 12.893 9.234 16.55 10.697h.092l.092-.092.365.09c3.107 1.1 6.4 1.28 9.507.642l-7.223-4.754.092-.092-4.662-3.11c-.732-.272-1.372-.73-1.92-1.187-5.852-4.39-9.875-7.132-9.967-7.223l-.365-.275.73-.915h.184c.457 0 8.32 5.943 10.057 7.132l.092-.092 2.194 1.463c1.553.73 3.2 1.188 5.394 1.555l.09-.092h.276c2.377.275 4.57.184 6.125 0l-3.657-2.56-.73-.548-18.652-13.35v-33.005h.64c.092 0 5.486-.64 11.61-4.206h.093c6.034-3.564 12.89-10.056 16.09-21.667 1.372-4.846 1.556-12.068.366-20.938h-.183l-.274-1.37h.273c-1.188-8.504-2.926-16.093-3.657-18.927l-8.41 5.303c2.01 2.652 12.707 17.372 8.502 34.195-4.663 18.835-20.572 20.39-20.754 20.39h-.64v-.64l-.823-4.207h-73.965l-1.006 4.846h-.55c-.182 0-16.09-1.554-20.753-20.39-4.114-16.64 6.217-31.176 8.503-34.193l-8.503-5.394c-.73 2.926-2.56 10.515-3.657 19.018v1.37h-.274v.093l-.458-.092c-.274 2.47-.457 4.754-.548 6.95h.09v1.37h-.182c-.092 2.377-.092 4.57.09 6.49h.367v1.373h-.183c.092 1.188.274 2.285.55 3.29h.09l.274 1.19v.182c.366 1.463.823 2.743 1.372 4.023v.092c.274.64.548 1.37.823 2.01l.55 1.098v.092c.548 1.188 1.187 2.285 1.92 3.383 2.56 3.932 5.485 6.857 8.502 9.052l.366.183v.092c1.006.73 2.012 1.37 3.017 1.92.73.365 1.372.73 2.103 1.097h.548v.274h.274v.092c1.372.64 2.56 1.097 3.657 1.463h.55v.184h.273v.09c2.286.642 3.84.824 3.84.824h.64v32.823l-22.948 16.366c2.743.274 9.417.64 13.897-2.742 5.85-4.48 9.965-7.314 9.965-7.314l.366-.274.824 1.097-.366.274s-3.75 2.65-9.417 6.767v.182l.184.275-.183.092v.09l-13.713 9.145c1.83.457 5.577.914 9.874-.823 3.75-1.37 9.327-5.028 16.64-10.697.092-.09.275-.183.367-.273v-45.166h7.68v51.018h-.73c-2.195 1.463-13.076 8.777-17.373 11.062-2.01 1.098-5.03 1.646-9.05 1.646-2.927 0-5.212-.274-5.853-.366l-11.336 7.224c.274.457.55.914.73 1.37.46 1.098.46 2.38-.09 3.566-.274.55-.548 1.006-1.006 1.463 8.503 7.224 13.257 17.19 14.903 21.213 0 .09.093.09.093.183l.366.365-1.373.642-.183-.365s0-.092-.092-.184c-1.188-3.017-5.76-13.44-14.72-20.938-1.188.823-2.65 1.372-4.114 1.372h-.55c-1.462-.09-2.742-.64-3.748-1.737l-.09.092-.092-.092c-.55.64-1.555 1.28-2.834 1.28-.73 0-1.372-.183-1.92-.55-1.097-.64-2.286-2.01-2.47-3.84-.09-.913 0-1.736.275-2.468-1.19-.457-3.11-1.37-3.293-3.657-.183-2.012.73-3.748 2.56-4.938-1.463-1.28-2.834-2.56-4.297-3.93l-1.92 3.473c-.823 1.555-1.463 3.2-2.01 5.12-1.19 4.938-4.024 9.235-8.047 12.252l-5.668 4.297-.915-.46.548-6.49c.274-3.75 1.92-7.315 4.754-9.967l11.43-10.058c-.184-.183-.46-.457-.64-.64l-2.104 1.83-5.668 4.845c-3.932 3.383-8.96 5.21-14.263 5.21-1.19 0-2.286-.09-3.566-.273l-.273-.09h-.548l-.184-.642 1.28-.73c2.743-1.464 5.394-3.475 8.045-6.035l1.464-1.463c2.47-2.47 5.76-3.84 9.234-3.84h4.663c-1.096-1.098-2.102-2.194-3.016-3.29l-.092-.185c-3.474-1.097-7.223-1.006-10.88.184l-2.01.73c-1.83.732-3.75 1.098-6.218 1.098-1.554 0-2.926-.184-4.48-.55l-9.143-2.284v-.457l-.273-.092.274-.09v-.64l3.293-1.28h-.183l.73-.274h.092c-5.03-1.646-6.583-7.314-6.766-8.23l-.274-1.096 5.303 1.28c3.2.822 6.583 1.37 9.966 1.645 4.664.365 9.327 1.28 14.08 2.65h.092l.366.184c-1.737-2.286-3.2-4.39-4.39-6.492l-2.01.64c-1.646.55-3.566.823-5.395.823-2.286 0-4.754-.457-7.223-1.462-3.108-1.372-5.943-3.657-8.046-6.675l-2.103-2.926.184-.457-.09-.092h.09l.183-.457 5.028 1.007c.457.092.915.184 1.463.184-2.194-2.56-3.75-5.668-4.57-9.05l-.55-2.378.458-.274.457-.274 3.108 2.47c1.555 1.187 3.2 1.92 5.03 2.285 2.01.364 4.023 1.278 5.668 2.65l2.47 2.01c-.184-.548-.367-1.005-.55-1.462h-.09l.09-.092c-.183-.548-.366-1.006-.457-1.463l-5.21-2.56c-3.566-1.646-6.492-4.39-8.412-7.68-1.463-2.56-2.377-5.212-2.65-7.863l-.458-4.388.457-.275v-.09l.09.09.367-.183 2.103 1.83c1.006.913 2.103 1.735 3.474 2.468 1.373.73 2.835 1.736 4.115 3.017l2.012-16.367.457-.09v-.275l.09.274.367-.09 1.738 3.93c.823 1.646 1.554 3.292 2.103 4.846l5.12-6.217.55.092.09-.09v.182l.367.092.09 6.582c.093 6.31-.913 12.526-3.016 18.56l-2.01 5.944.457.914-.183-.092c.274.64.548 1.37.914 2.194l.274.548.183.55.183.274.366.914c.09.09.09.273.183.365l.457.64-.183-.184c.092.184.184.365.275.55.183.364.366.73.548 1.097.09.182.274.457.366.64l.365-.366v.184l2.012-1.554-2.194-10.332c-.366-2.834.548-5.576 2.743-7.496l7.314-6.492.366.184.274-.184-.09.274.365.183-2.377 9.234c-.274 1.098-.457 2.377-.274 3.75.274 4.388-1.554 8.685-5.03 11.61l-2.833 2.103.092.092-.183.092c2.193 3.84 4.936 7.862 8.32 12.25l.365.184h.366l-.09.092.274.092-1.005-2.378c-1.738-4.022-1.555-8.686.273-12.708l6.034-12.983h.64l.183-.274v.273h.366l.914 6.49c.274 2.562.366 5.213.274 7.772-.274 5.212-1.554 10.24-3.657 14.72l-.09.093-1.647 2.193.366.458.274.274.915.915-.183-.092c1.372 1.555 2.834 3.108 4.297 4.662-.367-4.388-.184-13.805.822-17.005l.457-1.463c1.92-6.127 5.942-11.155 11.336-14.355l.274-.183.73.73-1.004 3.476c-.457 1.645-.64 3.474-.64 5.485.09 1.463 0 2.743-.274 4.022l.183-.183-.274.73c2.378-1.645 5.03-2.833 7.59-3.382l4.845-1.098.274.275h.182l-.092.182.366.365-2.56 4.937c-1.555 3.018-3.75 5.67-6.674 7.863l-12.892 8.777-.274.55-.09-.093-1.007 1.827c2.102 1.463 3.565 2.652 5.028 4.755l.183-.09c.46-.185 1.098-.367 1.738-.46.548-.09 1.097 0 1.646.275 0-.183 1.19-6.4 6.126-6.49 3.292-.093 5.028 2.833 5.668 5.76l.09-.092v.09l8.778-5.12.64-.364.457-.273-.09.274 7.68-5.302-.458.183 1.83-1.187c-2.287.64-4.207.73-5.304.73-.273.092-.64.092-.822.092-2.834 0-5.028-.457-5.12-.457l-.274-.092-.09-.457h-.184l.183-.092-.092-.366 24.138-17.097V737.04c-.64-.09-1.83-.365-3.292-.822v.184l-.183-.092-.274 13.257c-.275 3.75-1.92 7.224-4.664 9.966l-2.743 2.926-.457-.185-.457-.273v-6.674c-1.007 1.37-2.378 2.65-3.933 3.84l-3.108 2.377-.458-.184-.183.093v-.183l-.367-.183 1.92-8.504c-.73.732-1.554 1.463-2.468 2.012l-3.11 2.195-.365-.184-.183.184.09-.275-.365-.183 2.012-10.33c-1.463 1.554-3.292 2.925-5.303 3.84l-3.564 1.736-.366-.366h-.09v-.092l-.367-.365 4.114-9.874c-2.194 1.647-4.846 2.652-7.77 3.11l-3.933.456-.183-.365-.273-.548 5.21-5.943.55-.64c-1.83.73-3.84 1.187-5.852 1.28l-3.84.182-.183-.457h-.09l.09-.09-.183-.46 5.302-5.302c-1.372.366-2.834.55-4.39.55h-.822l-3.932-.093-.09-.365h-.184l.183-.183-.09-.457 7.953-6.675c-.823.09-1.554.183-2.286.183-2.834 0-6.034-.64-9.326-2.012l-.457-.182v-.457h-.09.09v-.456l7.68-3.2c-4.57-.55-9.6-2.012-11.336-2.56-.366-.092-.55-.183-.64-.183l-.366-.09v-.55l-.457-.183.46-.087v-.365l8.87-2.103h-.367l1.646-.366c-7.315-1.554-14.172-7.223-14.264-7.314l-.183-.183.092-.366-.183-.184h.274l.09-.457 9.784-.092c-6.766-2.468-12.526-7.953-12.526-8.044l-.183-.184.093-.273-.183-.185h.274l.09-.457h9.784c-7.223-3.108-13.714-9.508-13.988-9.783l-.274-.273.183-.366-.184-.183h.274l.183-.365 19.2 1.645-5.303-.914c-6.766-.823-13.074-6.218-16.366-9.6l-.092.09-.366-.365c-1.646-1.737-2.743-3.108-2.743-3.108l-.183-.184.183-.365-.366-.457.366.093.183-.366 6.674 1.28 3.292.64c-.823-.457-1.737-1.005-2.56-1.737-1.92-1.37-3.84-3.107-5.85-5.21-1.373-1.556-2.47-2.835-3.384-3.933l-.458-.457c-.09-.092-.09-.092-.183-.183l-.09-.183-.275-.275c-1.006-1.28-1.554-2.103-1.554-2.103l-.092-.366.274-.456.274-.55 4.023 1.28.548.093-.09.09 15.085 4.48 1.005.275 7.13 2.193c-1.462-.64-2.924-1.37-4.387-2.012l-2.652-1.28.092-.09-1.006-.366c-3.84-1.737-7.13-3.2-9.51-4.206-1.37-.547-2.56-1.187-3.564-1.828l-.09.092-.275-.273-.366-.183c-4.663-3.018-7.77-7.13-9.326-9.6l-.365.365v-1.006l-.09-.183c-.824-1.463-1.28-2.377-1.28-2.377l-.184-.274.732-.73 2.834 1.28 1.188.64 12.8 5.94v.093l14.994 7.04c-1.737-1.005-3.474-2.103-5.21-3.108-2.835-1.736-5.67-3.383-8.412-5.028l-.092.09-.274-.273-.458-.274c-1.83-1.097-3.565-2.103-5.12-3.108-2.47-1.463-4.846-2.835-6.766-4.023l-.183-.092-.274-.182c-2.835-1.738-4.572-2.835-5.578-3.475-7.77-5.212-11.61-17.098-11.61-17.19v-.18l.273-.276-.092-.183.183.092.274-.274 15.085 9.05c0-.09-.09-.18-.09-.272l-1.92-4.846.365-.274-.09-.274.273.183.366-.275 6.673 4.755.64.457h.09l16.275 11.61.09-.09.64.548 29.167 20.755 3.383 4.662.183-.183v.547h1.738l-.458.275c4.206.822 7.314 2.56 9.234 5.12 4.297 5.85 2.65 15.177 1.097 24.228-2.193 12.893-4.296 25.144 8.96 27.887h.092v-.092h.092l2.468-12.892.823.55c.092 0 .092.09.183.09.823.55 2.194 1.28 4.023 2.104l-.365-.274 11.154-12.708v-.184l-.275-1.187.823.823.09-.092.093-.184v.092l8.687-6.034 4.206-7.132-8.32-8.686h-.092l-3.656-.55-4.114 4.848-3.75-10.058 11.52-4.754.367-.365.09.092 8.778-4.022 21.12-.914-.092.365h.55l-.55.274.092.366-1.555.915h.184l9.143 35.84.092.457h.09l4.57 13.714c3.11-1.097 5.03-2.377 5.762-2.743.09-.09.183-.183.274-.183l.822-.548 2.47 12.89c13.348-2.74 11.245-14.9 8.96-27.884v-.184c-1.555-9.05-3.2-18.377 1.096-24.046 2.286-3.017 5.76-4.846 10.697-5.394l3.66-4.938 11.976-8.594 14.812-10.606h.09l15.36-10.972.824-.55.365-.18 9.783-7.042.273.184.458-.274-.182.457.365.273-1.92 4.846.183-.185-.183.275 14.994-9.053.274.366.092-.09v.09l.366.366-.183.364c-1.28 3.657-5.03 12.617-11.61 16.914-1.556 1.006-4.755 2.926-8.504 5.212l.092.09-.55.276c-.09 0-.09.09-.18.09-.093.092-.185.092-.276.184l-.273.184-.092-.092c-3.474 2.103-7.313 4.48-11.153 6.766l-.183.183-.092.093-.457.457-.09-.183c-4.024 2.377-7.864 4.662-11.43 6.766l13.44-6.31v.093l.548-.184 11.794-5.668.366-.184.64-.365.092.092 5.668-2.652.274.275.366-.184-.184.274.274.274-.092.273c0 .092-.64 1.372-1.83 3.2h.367l-.824.823-.09.092c-.093.092-.093.183-.185.183-2.284 3.2-6.124 7.59-11.793 10.24h-.092l-.09.09h-.093s-.092 0-.183.093l-.184.092h-.092c-.092 0-.092.09-.184.09-.09 0-.182.093-.273.093-3.566 1.462-9.418 4.206-16.184 7.313l-.365.184-1.006.457 1.37-.365-.09-.184 18.286-5.485-.092-.092.73-.182 7.68-2.285.367.457.183-.092-.092.183.183.275-.183.274s-1.737 2.467-4.297 5.393c-.09.184-.274.366-.366.458l-.364.366-.092-.09c-.273.364-.55.64-.914 1.005-1.828 1.92-5.028 5.028-8.594 7.04l10.057-1.828.184.365h.182l-.092.184.183.458-.272.273c-1.19 1.464-4.572 5.213-8.87 8.32l-.364.275-.092-.09c-3.657 2.56-7.04 3.93-10.148 4.296l-7.132 1.28 21.212-1.736.183.273h.183l-.183.092.274.548-.273.274c-.274.274-6.857 6.766-14.08 9.874h9.782l.09.365h.185l-.092.093.092.274c0 .55-5.943 5.852-12.526 8.32l9.69.183.092.365h.183l-.183.092.183.823h-.457s-.092.09-.183.09c-5.028 3.75-9.966 6.22-14.17 7.042l1.278.365h-.457l9.6 2.194v.275l.366.092-.366.09v.64l-.365.093s-.183.092-.364.092c-5.12 1.646-8.87 2.377-11.43 2.65l7.498 3.2v.458h.09-.09v.457l-.275.09s-4.57 2.104-9.417 2.104c-.823 0-1.463 0-2.104-.09l7.77 6.49-.092.458-.09.457-3.842.092c-.273.092-.548.092-.822.092-1.736 0-3.383-.275-5.028-.733l5.485 5.578-.09.365.09.092h-.09l-.092.55-3.932-.185c-1.92-.092-3.84-.457-5.577-1.188l5.576 6.4-.274.364.184.183h-.274l-.274.366-3.84-.457c-2.834-.457-5.486-1.463-7.59-3.017l4.115 9.78-.365.367v.09h-.092l-.365.367-3.565-1.737c-2.012-.915-3.748-2.194-5.12-3.657l.366 1.736 1.647 8.412-.366.274v.09h-.09l-.457.276-3.2-2.195c-1.006-.73-1.828-1.463-2.56-2.103l.183.73-.365-.456 1.83 8.41-.275.184v.184l-.092-.092-.548.274-3.11-2.286c-1.645-1.188-2.925-2.56-3.93-4.022v5.942l.365.366h-.366v.183l-.914.457-2.742-2.834c-2.743-2.742-4.39-6.217-4.663-9.966l-.274-13.165c-1.645.456-2.925.73-3.565.82v30.995l24.047 17.098-.092.365.183.092h-.183l-.092.457-.273.092c-.092 0-2.286.364-5.12.364h-.73c-.642 0-1.373-.092-2.196-.183l-.092.092h-.268c-.457-.09-.914-.183-1.37-.273l1.278.82-.09.093 6.855 4.662v-.09l9.69 5.668c.276-1.28.916-3.2 2.287-4.572l.73-.548.366-.273.732-.458-.092.183c.457-.092 1.006-.183 1.555-.183.64 0 1.19.09 1.464.183l1.28.274v-.185l.183.275h.09l1.464-14.172-2.193.73-.273-.273-.184.092.092-.184-.274-.273 3.657-9.875h.365l.092-.183.092.183h.64l2.56 10.972-.55.274v.093l-.09-.092-.274.093-2.285-1.372-1.555 14.355v.092l-.092 1.188c.184.184.365.457.55.732l.09-.55.092.184L265.238 762l-2.286.273-.274-.456-.183-.365 5.67-8.87.456.092.093-.183v.182l.457.092.09 11.154-.456.183v.184l-.09-.09-.367.182-2.012-1.92-10.515 33.828v.092c.092.183.092.365.184.55l.092.182v.183l.183.55.09-.183 23.59-49.646-2.287-.09-.457-.915 6.95-7.955.456.275.273-.275-.09.457.273.092-1.463 11.06-.274.093v.092l-.64.183-1.645-2.103-23.223 49.097.366.092 18.377-32.457-1.83-.092-.09-.183h-.09l.09-.092-.183-.64 7.497-7.405.547.273.092-.092v.184l.364.183-2.285 10.972-.458.092v.09l-.092-.09-.457.09-1.736-2.65-15.635 27.43 30.08-34.378-2.194-.732v-.914l8.868-5.852.184.183.365-.183-.184.365.46.457-4.39 10.24h-1.006l-.914-2.47-33.097 37.856h.457l25.69-22.217-2.01-1.19v-.913l9.873-3.932.274.366.365-.183-.183.366.273.366-6.4 9.234-1.006-.274-.365-2.47-25.143 21.67h.182-.183l-.367.365.274.092h-.092l.823.822.366-.184 14.08-9.417-2.012-1.462.273-.914 10.24-2.835.274.456.182-.09-.183.182.182.365-7.223 8.412-.458-.092-.092.092v-.092l-.365-.09-.183-2.652-14.263 9.418-.093.09c.274.642.457 1.373.457 2.196l7.863-2.835-1.555-1.555.092-.55-.092-.09h.092l.092-.274 10.514-1.28.183.366h.274l-.183.183.274.456-8.595 7.223-.457-.274h-.09v-.092l-.367-.183.273-2.742-8.686 3.2c-.274.55-.732 1.006-1.19 1.372l-.18.182c-.642.366-1.19.64-1.74.823.367 1.006.367 1.92.276 2.56-.184 1.83-1.372 3.2-2.56 3.84-.642.366-1.19.55-1.92.55-1.464 0-2.47-.823-2.927-1.372-.365.365-.64.55-1.006.823l-.55 5.67 2.653 1.827-1.006 17.92-3.292-1.37-3.932 1.37-.274-1.28.365-.183-1.646-1.463-1.546 3.75zm8.046-19.383l-4.298 16.915 3.384-1.19 1.92.823.73-15.177-1.736-1.372zm-9.874 15.36l1.37 1.555.823-2.195-.55-.457-.548 1.188-2.286-2.47-1.645 2.652 2.836-.274zm3.84-1.097l.73.64 3.11-12.068-5.396 10.057 1.19 1.097.364.09v.183zm-7.59-3.11l3.11.276 1.462 1.554 7.132-13.44-1.006-1.736-.366-.09-.182-.366-.092-.092-1.737-.092-8.32 13.988zm-9.965-1.462l2.927.915 1.098 1.828 9.69-11.794-.73-2.194-2.194-.64-10.79 11.885zm-2.65-5.303l3.475 2.286.64-.366.55-.64 8.502-9.325 2.834.914 3.11-3.656-3.476 2.377-.273.275-.09-.092-.184.092v-.274l-2.103-1.462-12.983 9.874zm16.915-6.308l.64 2.104 2.56-4.297 2.286.092v-.09h.275l1.006-1.83c-.456 0-1.005-.183-1.554-.366l.092.092-.366-.183c-.183-.09-.366-.09-.548-.183l-.184-.092-.183.457-.092-.183-3.93 4.48zm-16.184-.64l2.927 2.47 9.326-7.133 2.47 1.647.364-.184 3.475-2.377-.184-.183-.09.09-3.476 1.373-2.194-2.103-12.617 6.4zm24.596 1.097h.183l.456-4.845c-.183.092-.457.092-.64.092h-.183l-.092.184-.183.73-.182.367-.55 1.554.184.367.182.274.824 1.28zM88.23 794.644l-10.97 9.69c-2.56 2.56-4.115 5.762-4.298 9.145l-.366 4.662 4.206-3.108c3.75-2.743 6.4-6.856 7.497-11.43.456-1.827 1.187-3.747 2.102-5.394l1.83-3.565zm161.556 18.925h.273c.09 0 .09 0 .183-.09h.09l.55-.093c.183-.092.366-.092.548-.184h.093v-.09l.184-.09c.09 0 .09-.093.183-.093.09-.092.183-.092.274-.184.09-.09.183-.09.273-.183l.55-.73c.364-.366.548-.915.73-1.464.183-.457.274-.822.274-1.188l-.09.183v-1.187l-.092-.275-.274-.457-.457-.913-.092-.092v.184l-.183-.185-.55-.548-.456-.458c-1.006-.458-2.194-.73-3.017-.73h-.185c-.092 1.096 0 1.92.274 2.56.09.273.273.273.273.273h.55l-.366 1.463-.458-.092c-.092 0-.732-.183-1.28-.914v-.092c-.366-.822-.458-1.736-.458-2.834-1.37.64-2.56 1.92-3.017 3.018-.274.64-.458 1.554.09 2.47.093.182.185.272.276.456.092.09.092.183.183.183.092.092.092.184.184.275l.183.273c.09.092.09.092.183.184s.274.183.366.365c0 0 .09 0 .09.092l.274.182.274.092h.092l.273.183c.457.274 1.006.457 1.463.55v.09h.092l1.648.09zm-147.2-1.553c.73.914 1.736 1.37 3.016 1.463 2.194.273 4.48-1.006 5.486-2.926.366-.64.366-1.555.09-2.377-.547-1.372-1.92-2.56-3.2-3.11.092 1.372-.09 2.378-.457 3.02-.456.82-1.096.913-1.187.913l-.457.092-.274-1.28.457-.092s.182-.09.365-.365c.274-.55.366-1.372.274-2.47h-.092c-1.188 0-2.286.275-3.108.732h.09l-.548.274-.274.182-.092.092c-1.005 1.006-1.28 2.285-.823 4.022.183.55.366 1.006.64 1.372l.092.457zm-6.766-3.84c-.183.64-.274 1.28-.183 1.92.183 1.37 1.097 2.468 1.83 2.834.64.364 1.188.456 1.736.364.73-.183 1.372-.822 1.646-1.28-.184-.365-.367-.822-.55-1.28-.73-2.102-.274-3.93 1.097-5.394.09-.09.183-.183.274-.183-.182-.184-.273-.365-.457-.55 0 .093-.09.093-.09.185v.09c-.55.915-.915 1.555-.915 1.555l-.274.457-1.097-.822.183-.365s.274-.64.823-1.463c-.64.183-1.463.73-2.377 1.736-.548.55-1.005 1.19-1.37 1.737l-.276.458zm158.812 4.205c.64.64 1.736 1.28 3.107.457.822-.457 1.737-1.555 1.92-2.834v-.092c.09-.456.09-.913-.092-1.462l-.183-.365-.184-.366c-.18-.274-.272-.548-.547-.823l-.366-.457-.273-.273h.09l-.182-.184-.274-.365h-.09l-.276-.274-2.285-1.553.73.365-.73-.365 1.098 1.554c.09.092.182.184.182.275l.275.274-.184.09v.184l-1.006.55-.183.09-.092.09-.092.093v.458l.092.092c.183.184.183.457.183.73v.275h-.09c.09.823 0 1.556-.367 2.286-.182.457-.365.914-.548 1.28l.09.092.277.182zm-11.61-1.28l-.185.55.365-.092c0-.092-.09-.184-.09-.275-.09-.092-.09-.182-.09-.182zm10.604-3.748l-.366.823.366-.823zm6.582-.64l.092.09-.092-.09 2.012-1.372.184-.366v-.274l-.092-2.194v-.55l-.092-.09v-.092l-.092-.184-.365-.365c-.365-.457-.822-.822-1.28-1.006-.09-.093-.274-.093-.365-.093l-.366-.182-.365-.184c-.184-.09-.457-.182-.64-.182h-.092l-.366.183-.366.185.092.09h.09l.732.732c.092 0 .092.092.184.092l.182.272.366.366c.274.274.366.548.366.548l.273.366-1.098.823-.274-.366s-.274-.366-.64-.732h-.183l-.092-.365-.184-.184-.274-.366-.366-.092-.274-.273-.092-.093-.09.183-.275-.274-1.464-.55-.457.733-.274 1.645 1.097.274v.09h.366l.364.183h.273l.275.184.182.092.184.09c.274.183.64.457.914.73l.184.184.73.73.55.55h.09l.274.55.092.09.456.458zm-167.68-2.835c.183 1.83 1.83 2.378 2.56 2.56.366-.457.73-1.006 1.28-1.645 1.19-1.28 2.377-2.012 3.475-2.104-.183-.73-.457-1.646-.915-2.377-1.554.732-2.468 2.195-2.56 2.195l-.183.365-1.006-.457v-.274c0-.366 1.005-1.83 2.65-2.743-.183-.092-.457-.092-.64-.092-.274.092-.64.092-.915.183l.274.274h-.73l-.274.365h-.274c-.092 0-.183 0-.274-.09-1.647.732-2.56 2.194-2.47 3.84zm161.19 1.554c.73.642 1.37 1.373 1.37 1.464v.092l.823-.365-.82-.913v-.092s-.276 0-1.1-.64l-.273.456zm-145.92-1.827c.09 0 .273.092.365.092.823.365 1.646.914 2.377 1.555l11.61-7.406.275-.183.366-.182.184-.092v.183l5.303-3.2c-4.937.822-8.41-.64-8.503-.64l-.09-.092-10.058 5.85-.09-.182-.367.092v-.823l-.092-.09c-.73-3.66-2.194-5.396-4.48-5.396-3.84.182-4.754 5.21-4.754 5.302l-.09.273c.365-.09.64-.09 1.096-.09h.457v1.37h-.457c-.183 0-.458 0-.64.092.366.73.64 1.463.73 2.103l.55-.64 1.096.823-.274.365c-.09.183-.274.365-.366.55 0 .09-.09.09-.09.182.365.274.64.64.914 1.006 1.005-.55 2.286-.823 3.565-.823-.183-.64-.274-1.37-.64-2.103l-.183-.457 1.28-.366.092.457c.183.55.274 1.006.366 1.463.364.274.456.64.547 1.006zm145.828 1.554l.09.092.184-.458-.274.365zm-20.48-7.222l11.43 7.314.365-.093c.73-.64 1.464-1.098 2.286-1.463l.183-.092c.09 0 .182-.092.273-.092l.092-.273c.183-.64.365-1.37.64-2.194l.09-.366 1.19.274-.092.458c-.092.274-.183.458-.183.73-.09.458-.274.824-.366 1.19 1.098 0 2.195.273 3.2.73h.366l.183-.183v-.09l.09-.093.093-.092.092-.365h-.092v-.092l-.092-.092.092-.182v-.73l.092-.366 1.006-1.828v-1.28l.914-.274v-1.555c0-.092-.184-.274-.184-.365l-.182-.184.09-.09c0-.093-.09-.093-.09-.184v.273l-.823-1.554-.367-.457c-.457-.457-1.37-1.28-2.834-1.28-.823 0-1.464.184-2.105.732l-.822.73c-1.098 1.464-1.463 3.476-1.555 4.115v.73l-.457-.183-.09.184-.092-.09-.09.09-10.06-5.76c-.822.274-4.113 1.372-8.41.55l5.485 3.383v-.092l.366.366.366.19zm-169.51 5.12c5.487.274 10.79-1.555 14.72-4.938l6.767-5.76h-4.297c-3.11 0-6.126 1.28-8.23 3.474l-1.462 1.464c-2.103 2.103-4.663 4.023-7.497 5.76zm210.195-1.464l-.09 1.373 5.028-4.206-6.217.73 1.92 1.92-.64.184zm-18.468-2.925c.092 0 .184.092.274.092l.366.184h.092c.09-.09-.092-.365 0-.456l-.732.18zm-130.56-.822c3.658.274 9.235.365 12.252-1.28 3.108-1.646 9.966-6.126 14.08-8.868 1.646-1.098 2.834-1.92 3.474-2.286v-48.366h-4.937v44.343l-.548.55-.09-.093c-.275.183-.732.55-1.19.914-2.102 1.555-5.85 4.48-9.69 6.857l-13.35 8.228zm95.544-.55l.274.093c3.2.822 7.314.55 9.69.365l-6.49-3.93v.09l-6.583-4.113c-5.578-3.474-11.246-8.046-11.338-8.046l-.274-.272v-44.435h-4.938v48.365c.55.366 1.828 1.188 3.475 2.286 4.113 2.65 10.97 7.223 14.08 8.868.457.367 1.188.55 2.103.732zm58.88-6.033l.092 1.463 4.297-4.937-6.034 1.645 2.195 1.647-.55.183zm-178.652-29.53c-4.39 2.925-7.68 7.404-9.326 12.616l-.458 1.463c-.823 2.65-1.005 10.604-.823 15.268l.183-.365-.092-.184.274-.274 6.95-12.617c.365-.642.64-1.282.913-2.105l.183-.73.183-.458.093.09c.548-1.735.823-3.655.73-5.667-.09-2.012.092-3.932.64-5.852l.55-1.19zm-7.77 26.878l-.092.184 10.79-7.406c2.65-1.828 4.936-4.48 6.308-7.314l1.737-3.475-3.292.732c-3.2.73-6.217 2.284-8.777 4.57-.366.822-.64 1.554-1.006 2.285l-5.67 10.423zm-40.32-2.65l6.582 1.645c3.2.914 6.674.73 9.875-.457l2.012-.73c2.926-1.007 6.31-1.28 9.69-.732l-.182-.184.274.09-1.37-1.644-10.24-1.463c-3.475-.55-7.224-.092-10.79 1.188l-1.005.367-1.28.64v-.092l-3.567 1.372zm33.827-28.344l-5.027 10.697c-1.646 3.657-1.737 7.864-.274 11.612l1.736 4.205.823-1.006c2.01-4.478 3.2-9.232 3.473-14.17.183-2.56.092-5.028-.274-7.497l-.46-3.84zm-37.76 19.018c.824 2.377 2.927 6.31 7.68 6.49l1.83-.64c3.565-1.28 7.405-1.645 11.245-1.188l7.497 1.098-1.372-.73c-4.48-1.373-9.143-2.287-13.714-2.56-3.474-.276-6.857-.825-10.148-1.647l-3.017-.823zm240.002-.457l.273 1.37 3.75-5.394-5.853 2.286 2.194 1.372-.364.367zm-32.276.457l1.19.822-1.464-6.4-2.194 5.852 2.468-.914v.64zm-206.902-11.43l1.006 1.372c1.83 2.743 4.39 4.937 7.406 6.126 3.84 1.646 8.045 1.828 11.886.64l1.463-.457-6.583-5.028c-2.194-1.737-5.12-2.47-7.954-2.012h-.183l-.366.183-.458.183-.183-.184c-1.006 0-1.92 0-2.927-.183l-3.11-.64zm15.91 1.555l4.662 3.566c-.457-.823-.823-1.555-1.188-2.377l-.823-1.646c-.183-.457-.457-.914-.64-1.37l-.09-.185-4.39-3.474c-1.463-1.187-3.2-2.01-5.12-2.377-1.92-.273-3.932-1.188-5.577-2.56l-1.28-1.005c.73 3.474 2.47 6.582 4.937 9.233h.092c.183 0 .274-.09.457-.09 3.198-.455 6.49.367 8.96 2.287zm213.667-1.828l1.098 1.554 1.372-6.4-4.39 4.297 2.195.093-.274.456zM80.187 745.545l-5.486 4.846c-1.737 1.463-2.56 3.84-2.194 6.217l1.92 9.6c2.56-2.47 4.023-5.943 3.75-9.6-.093-1.556 0-2.927.365-4.298l1.646-6.766zm186.88 15.36l1.097 1.097-.092-6.583-3.382 5.212 2.377-.275v.548zm27.52-2.012l.548 1.372 2.652-6.126-5.304 3.475 2.378.822-.275.457zM131.02 752.86v7.04l1.37-1.372c2.56-2.56 4.115-5.76 4.39-9.143l.09-3.657c-.822-.09-2.193-.366-4.205-1.006l-.548 5.212c-.183.73-.458 1.463-.73 2.193h.182l-.55.733zm87.314-7.13l.092 3.748c.274 3.29 1.737 6.4 4.388 9.143l1.19 1.19v-6.95c-.366-.822-.732-1.828-1.007-2.742l-.64-5.395c-2.01.73-3.383.915-4.023 1.006zm-92.983 4.478l-1.92 8.87 1.373-1.007c2.194-1.645 3.84-3.564 4.937-5.76v-.183h.09c.367-.73.64-1.554.824-2.377l.64-5.485v-.09c-.73-.276-1.554-.642-2.286-1.007-.274-.092-.548-.184-.823-.366l-.73 2.835c-.55 1.736-1.19 3.2-2.104 4.48.093 0 0 .09 0 .09zm100.208 2.47c1.097 2.103 2.742 3.93 4.754 5.394l1.37 1.006-2.103-9.052c-.823-1.188-1.463-2.65-2.012-4.297l-.73-2.744c-.184.092-.366.184-.55.274-.73.457-1.646.823-2.56 1.097l.73 5.578c.184.822.55 1.554.915 2.377h.184v.365zM66.47 737.042c.458 1.554.824 3.108 1.007 4.663.548 3.748.548 7.314 0 10.88l-.823 5.394 1.37-3.748c2.013-5.852 3.018-11.978 2.927-18.104l-.09-4.39-4.39 5.305zm-16.64 1.463l.275 2.377c.366 2.743 1.188 5.212 2.47 7.314 1.92 3.108 4.662 5.577 7.862 7.132l4.206 2.01v-.09l-2.65-6.676c-.732-1.92-1.92-3.657-3.293-5.212h-.274l.092-.273c-1.28-1.373-2.743-2.562-4.39-3.384-1.37-.823-2.65-1.738-3.748-2.743l-.55-.457zm10.24 6.307c1.28 1.463 2.287 3.2 3.11 5.212l2.376 6.218.64-3.84c.55-3.475.55-6.95 0-10.424-.64-4.114-1.83-7.59-3.474-10.698l-.823-1.554-1.92 14.903.09.183zm60.8-1.46l-2.285 11.153 1.554-1.098c1.554-1.097 2.833-2.286 3.84-3.657l.273-.272v-.457h.092v-.09l.274.09.457-.73c.548-.915.914-1.83 1.188-2.927l.823-3.107c-1.006-.64-2.56-1.555-4.206-2.652v.092l-.092-.092-1.28 2.377c-.09.457-.18.823-.64 1.372zm110.172 6.033c1.098 1.555 2.378 2.834 4.023 3.932l1.555 1.097-2.104-10.788c-.365-.55-.64-1.098-.914-1.646l-1.188-2.284v-.092c-1.463 1.006-2.835 1.828-4.114 2.56l.64 3.018c.183.73.458 1.463.915 2.286l1.187 1.918zm4.846-6.217c1.555 2.284 3.75 4.112 6.218 5.21l1.646.822-4.48-10.514-2.193-2.65c-1.007.822-2.286 1.92-3.567 2.833l1.28 2.47c.092.274.274.457.458.73l.274.55h.092l.092.365.18.184zm-120.045-4.116l-4.297 10.148 1.646-.822c2.468-1.098 4.48-2.834 5.943-4.938l.457-.64v-.183h.09l.184-.275c.183-.366.366-.73.548-1.006l1.372-2.56c-1.097-.824-2.194-1.738-3.383-2.835l-1.92 2.377-.092.09-.547.642zm166.308 8.32l.915 1.098.822-6.583-4.113 4.753 2.65.092-.273.64zm-63.907-11.61l.183 8.593c.64-.09 1.92-.273 4.022-1.005l-1.098-8.868c-1.004.456-2.193.913-3.107 1.28zm-85.212 7.496c1.83.64 3.2.915 4.024 1.006l.09-8.777c-1.096-.367-2.01-.824-3.016-1.19l-1.097 8.96zm89.602-9.325l1.097 8.868c.913-.366 1.92-.823 2.925-1.28l-2.194-8.502c-.73.366-1.37.64-1.828.915zm17.92 4.205c2.285 2.377 5.394 3.84 8.96 4.39l1.828.183-6.856-7.955-.366-.273-.458-.458-.09-.09-.367-.185h.184l-1.92-1.92c-1.006 1.098-2.104 2.194-3.29 3.2l2.192 2.65.183-.09v.548zm-129.738-3.29l-6.857 7.953 1.83-.183c3.656-.457 6.765-2.012 8.776-4.48l2.012-2.377-.274.64 1.007-1.188c-1.097-1.006-2.194-2.103-3.383-3.2l-2.194 2.194c-.183.183-.274.274-.457.365l.09.09-.55.184zm17.83 6.58c.09.093.273.093.365.185.182.092.456.183.64.274.64.273 1.28.64 1.92.822l1.096-9.052c-.64-.274-1.28-.55-1.737-.915l-2.287 8.686zm-5.122-3.016c1.463 1.006 2.652 1.83 3.84 2.47l2.286-8.687-2.194-1.097-3.932 7.314zm104.413 2.286c1.097-.64 2.285-1.37 3.84-2.377l-3.84-7.498c-.732.55-1.555 1.098-2.195 1.463l2.195 8.412zm-105.6-3.383l.182.183 3.93-7.497c-.64-.457-1.28-1.006-1.92-1.555l-5.393 6.492c1.005.914 2.01 1.736 3.108 2.56l.092-.183zm110.536.09c1.098-.64 2.104-1.553 3.293-2.56l-.092-.183-5.302-6.31c-.64.55-1.19 1.1-1.828 1.556l3.93 7.498zm13.715-2.65c2.104 1.19 4.572 1.92 7.224 2.104l1.828.092-6.4-6.4c-.55-.365-1.098-.73-1.646-1.097l-2.47-1.92c-.913 1.188-1.92 2.285-2.833 3.29l2.194 2.196c.273.274.548.55.914.823l.273.183 1.464.73h-.55zm-141.348-3.748l-5.76 5.85 1.92-.09c3.292-.185 6.31-1.28 8.686-3.2l.183-.184c.183-.092.274-.274.457-.365l2.194-2.194c-.55-.64-1.188-1.37-1.83-2.103-.365-.366-.64-.823-1.005-1.188l-2.468 1.92c-.64.55-1.372 1.006-2.194 1.463l-.183.09zm9.69-.185c1.19 1.28 2.287 2.286 3.2 3.11l5.395-6.493c-.914-.914-1.828-1.828-2.65-2.742l-5.944 6.125zm117.03-3.383l5.303 6.492 3.108-3.11.092-.09-6.034-6.126c-.823 1.006-1.738 1.92-2.47 2.834zm-136.594 3.75l1.83.09c2.65.092 5.12-.457 7.405-1.463l.548-.274 1.646-1.098 2.47-1.92c-1.007-1.188-1.738-2.56-2.378-3.748-1.006.457-1.92.914-2.926 1.28l-8.595 7.13zm154.97-1.554c2.287 1.188 4.847 1.736 7.682 1.554l1.828-.09-8.32-6.95c-1.098-.365-2.103-.914-3.2-1.37-.73 1.37-1.554 2.56-2.377 3.655l2.378 1.92c.457.366 1.006.732 1.554 1.006l.09-.09.185.182v-.092l.18.275zm-15.176-6.035l6.125 6.217c.914-1.006 1.83-2.103 2.743-3.107l-.09-.092-7.042-5.576c-.182.274-.365.457-.457.73-.365.64-.822 1.28-1.28 1.83zm-123.886 3.11c.915 1.096 1.83 2.102 2.744 3.106l.09-.092v.09l5.944-6.032c-.64-.823-1.28-1.646-1.83-2.56l-6.947 5.486zm17.098-52.482c-.548.64-13.074 15.91-8.686 33.556 1.28 5.12 4.297 12.068 11.52 16.457 3.383 2.01 6.31 2.65 7.406 2.834l.73-3.383h-.456v-.184c-14.08-3.2-11.794-16.457-9.6-29.256 1.463-8.412 3.108-17.92-.823-23.224-2.013-2.56-5.03-4.114-9.418-4.755-.09.275-.183.55-.274.915l10.24 6.49-.64.55zm87.68 49.28l.732 3.476c1.097-.183 4.022-.822 7.496-2.834 3.932-2.377 9.144-7.13 11.43-16.457 3.93-15.817-5.67-29.623-8.686-33.463l-.092-.092-.55-.55 10.24-6.398c-.09-.55-.183-.915-.273-1.188h-.183c-4.39.64-7.406 2.194-9.234 4.754-3.932 5.395-2.377 14.445-.823 23.132 2.194 12.708 4.48 25.874-9.143 29.35v.272h-.914zm21.67-3.564l7.223 5.668c.823-1.006 1.555-2.194 2.194-3.475l-.183-.093c-3.473-1.736-6.765-3.564-8.045-4.39-.273.735-.73 1.465-1.188 2.29zm-129.464 2.194c.73 1.28 1.463 2.47 2.194 3.475l7.223-5.668c-.457-.732-.822-1.463-1.187-2.195-1.463.73-4.754 2.65-8.23 4.388zm143.91.823c4.204 1.646 9.507.183 11.884-.55l-8.32-3.564h-.64c-.73 0-1.462-.093-2.103-.275-.64-.09-1.463-.366-2.377-.64-.457 1.37-.914 2.56-1.463 3.656.822.367 1.646.733 2.65 1.1l.092-.093.092.092v-.093l.183.366zm-160.824-.64c2.286.822 7.68 2.193 11.886.548l.183-.182v.092l.09-.092v.092c.915-.366 1.83-.732 2.652-1.19l-.092-.272c-.548-1.098-1.005-2.286-1.37-3.383-.824.273-1.738.55-2.652.73-.55.184-1.28.184-2.103.184h-.548l-.183.09-7.864 3.383zm122.88-.092l-2.012-10.788c-1.828 1.098-7.68 4.297-16.55 4.297-9.324 0-16.09-6.948-18.01-9.144-5.395 5.943-11.703 9.143-18.012 9.143-5.76 0-10.148-1.28-12.8-2.378-1.646-.73-2.926-1.37-3.75-1.828l-2.102 10.79 73.236-.093zm25.326-5.85c.092 0 .183.092.273.183 1.37.823 4.663 2.65 8.046 4.298.457-1.005 1.005-2.103 1.463-3.382-3.66-1.098-7.134-2.56-8.778-3.292-.366.823-.733 1.462-1.006 2.194zm-133.395 1.098c.367 1.006.824 2.103 1.372 3.383 3.657-1.828 7.04-3.748 8.23-4.48-.367-.73-.64-1.462-.916-2.193-.09 0-.183.09-.274.09-1.645.732-4.937 2.103-8.41 3.2zm149.212-.276l.55.275c3.656-.092 8.32-1.19 11.794-2.195l-12.983-3.017c-.914-.09-1.83-.274-2.65-.366-.275 1.37-.642 2.834-1.19 4.57h.092l-.09.184c.73.183 1.462.457 2.193.548.64.184 1.37.184 2.194.275l.09-.275zm-168.045-2.01c3.566 1.005 8.412 2.193 12.07 2.193l.365-.184v.185c.73 0 1.462-.092 2.103-.274l2.194-.548.273-.09c-.457-1.556-.915-3.11-1.28-4.664-.914.183-1.83.366-2.743.457v.09l-.457.093c-.274.092-.64.092-1.006.092l-11.52 2.65zm153.6-2.287s.092 0 .092.092c1.553.64 5.027 2.104 8.593 3.2.457-1.372.823-2.835 1.188-4.57-4.205-.733-7.312-1.372-8.775-1.647h-.184v.55l-.182-.093c-.09.275-.09.457-.183.64l.365-.364-.64 1.188c-.09.275-.09.64-.273 1.005zm-135.04 3.11v.09c3.566-1.096 6.95-2.56 8.412-3.107l-.367-.365h.366c-.367-1.006-.64-1.83-.824-2.652l-.09.093v-.274c-1.28.273-4.48.914-8.87 1.736.366 1.646.823 3.2 1.19 4.57l.18-.09zm73.052-9.967c2.284 2.56 8.5 8.412 16.73 8.412 3.2 0 6.308-.457 9.233-1.28l-.182-.274h.183l-4.205-12.8-23.13 3.475-18.836-3.656-10.605 12.434c2.925 1.098 6.766 2.012 11.52 2.012 9.875 0 16.73-8.32 17.463-9.234v-1.006l.64.64 1.28 1.28h-.09v-.002zm77.073 5.03c6.034.64 13.257-3.75 16.457-6.035l-13.623-.183h-5.668c-.276 1.92-.458 3.84-.824 5.668.914.184 2.01.274 3.017.457.184 0 .274 0 .457.092h.183zm-173.35-6.035c3.292 2.286 10.515 6.766 16.55 6.034v-.092l.456-.092c1.096-.182 2.193-.273 3.2-.457-.275-1.92-.64-3.656-.824-5.576h-5.852l-13.53.183zm159.452 3.474h.183c1.555.275 4.663 1.006 8.777 1.646.274-1.737.55-3.566.73-5.395l-4.205.092c-2.193 0-4.022.09-5.028.09 0 1.373-.182 2.47-.457 3.567zm-138.697-3.657c.183 1.828.458 3.565.73 5.303 3.11-.55 6.127-1.098 8.87-1.737-.183-1.097-.366-2.194-.457-3.383-.914 0-2.56 0-4.662-.092l-4.48-.09zm139.337-7.68c.092 2.47.092 4.57-.09 6.49 1.096 0 2.924-.09 5.21-.09l4.022-.092c.275-2.468.366-4.754.366-6.856-4.205.365-7.953.457-9.508.548zm-139.337 6.308l4.206.092c2.194 0 3.93.09 4.937.09-.09-1.92-.182-4.02-.09-6.49-.458 0-1.006 0-1.737-.09-1.92-.093-4.663-.185-7.77-.367.09 2.01.18 4.298.455 6.765zm150.31 0h5.303c6.675 0 13.532-5.12 16.55-7.68h-11.98v.09h-.913c-.183 0-.365.093-.55.093-3.198.275-5.94.55-8.318.732-.093 2.194-.184 4.48-.367 6.766h.274zm-157.075 0h5.303c-.183-2.377-.274-4.663-.366-6.856h-.09c-1.19-.092-2.47-.184-3.75-.275-1.554-.09-3.108-.273-4.663-.365-.366 0-.64 0-1.097-.092l-.274-.09h-12.16c2.834 2.376 9.052 7.04 15.27 7.588l1.736-.092v.183h.09zm63.634-4.754l17.372 3.383 22.582-3.383-8.777-34.743h-2.012l-.092-.364h-.456l.366-.274-.09-.458 1.278-.64-17.83.823-8.044 3.748 2.834 2.834 4.023 1.92 1.92 6.49-7.954-1.278 7.77 8.137-4.936 8.32-7.953 5.484zm-57.235-3.474c4.39.274 8.137.457 9.6.55 0-.732.09-1.464.09-2.195.093-1.646.184-3.29.184-4.938l-5.668-1.006-4.114-.364c-.092 2.56-.092 5.302-.092 7.954zm138.973-6.583c.365 2.652.548 4.938.64 7.132.457 0 1.097-.093 2.01-.093 1.83-.09 4.665-.183 7.772-.365.092-2.378 0-5.028-.183-8.046l-3.383.274-.822.183h-.914l-5.12.914zm11.794 6.583c2.376-.09 5.027-.366 8.318-.64.184 0 .366-.092.55-.092h.09c6.767-1.098 13.897-7.04 16.823-9.6l-25.964 2.285v.184c0 .273.09.55.09.822.093 2.194.093 4.663.093 7.04zm-161.19-.732h.458c2.56.274 5.12.365 7.68.55l.73.09c0-2.468 0-4.754.092-6.948 0-.273 0-.55.092-.822v-.275l-26.057-2.193c7.406 6.49 12.708 8.777 16 9.508l1.005.09zm20.663-7.222h.183c.274-2.194.64-4.48 1.006-6.674h-.09v-.092c-.732-.184-1.92-.365-3.475-.73-1.92-.367-4.297-.916-7.04-1.464-.183 1.83-.458 4.39-.64 7.132l3.292.64.73.09.823.185v.092l5.21.82zm127.634-6.766c.365 2.103.73 4.48 1.006 6.766l6.217-1.098v.092l4.023-.73c-.184-2.652-.366-4.938-.55-7.133-2.284.457-4.388.915-6.216 1.28-2.195.274-3.75.64-4.48.823zm-169.6-7.77l.366.364c2.377 2.56 8.777 8.595 15.91 9.418l14.08 2.65v-.09h.09c.183-2.652.457-5.213.64-7.04h-.183l.09-.184-3.2-.64c-3.382-.732-6.765-1.372-9.874-2.104v.092L70.22 671.76c.182.275.456.55.73.823l.274.366.093-.18zm181.486 5.3c.183 1.83.457 4.39.64 7.132l14.172-2.56c3.932-.457 7.588-2.65 9.966-4.388l.366-.275.092.09c3.2-2.376 5.67-4.937 7.04-6.4l-19.2 3.567c-3.2.73-6.948 1.463-10.515 2.193l-2.56.64zm-148.663-1.096c3.475.732 6.583 1.372 8.594 1.738.73.182 1.372.273 1.83.365.182-1.098.365-2.194.548-3.018-.73-.366-2.194-1.098-4.206-2.013-1.737-.822-3.84-1.828-6.217-3.017-.092.823-.275 1.646-.367 2.56-.183 1.006-.274 2.104-.457 3.2h.274v.184zm135.863-.823c.092.55.183 1.19.365 1.83.092.365.184.73.184 1.188.64-.184 1.736-.366 3.2-.64 2.01-.366 4.662-.915 7.588-1.556-.183-1.92-.457-3.748-.823-5.76l-3.656 1.737c-3.382 1.556-5.76 2.744-6.857 3.2zm-86.674-4.57l2.376 6.49 3.108-3.747 4.663.73.184-.09.184.182 7.77 1.188-1.096-3.75-3.75-1.827-3.29-3.29h-.092v-.093l-10.057 4.207zm-63.27 2.468c2.926.64 6.217 1.28 9.326 2.012l3.2.64c.183-1.097.274-2.193.457-3.2.183-1.096.274-2.102.458-3.016-1.188-.55-2.376-1.19-3.565-1.738L83.57 663.9l-.092.092-16.915-5.028-.366-.092c.092.092.183.274.274.366l.275.365c1.737 2.194 5.21 6.31 9.234 9.326l.73.548c2.194 1.554 4.206 2.56 6.125 3.017.823.183 1.737.366 2.834.64 1.004.184 2.01.457 3.2.732h.272l.824-.457.094.638zm161.737-3.383c.366 2.012.64 4.023.823 6.035 4.205-.823 8.777-1.83 12.525-2.652h.184v-.09l2.284-.458c1.646-.366 3.018-.64 3.932-.823l.822-.183c5.395-1.372 10.79-6.856 13.44-9.966l.366-.365.09.092.184-.458.092.092c1.098-1.19 2.012-2.287 2.65-3.2l-4.205 1.187.092.09-1.006.185-17.736 5.303.092.092-10.972 3.2c-1.28.548-2.47 1.188-3.657 1.737v.18zm-11.978 3.658v.457c1.28-.64 3.84-1.92 7.222-3.566l3.2-1.554c-.365-2.47-.73-4.298-.913-5.212l-1.007.64c-6.4 3.84-9.326 5.486-9.6 5.67.273 1.188.548 2.468.822 3.84l.274-.275zm-134.857-4.664c4.937 2.377 8.868 4.297 10.514 5.12.274-1.463.64-2.743.914-3.932l-.182-.184c-.09 0-1.006-.64-2.377-1.463-1.828-1.096-4.662-2.74-7.953-4.753-.09 1.007-.548 2.835-.914 5.212zm1.097-6.583c3.475 2.012 6.31 3.748 8.32 4.938 1.097.64 2.01 1.188 2.377 1.463.183-.55.274-1.098.366-1.646l-21.943-13.99-.823-.548-14.628-9.326-6.95-4.297c-2.377-1.645-4.48-3.655-6.31-6.124v.092l-.547-.732c-.183-.183-.274-.365-.366-.457-.458-.64-.915-1.28-1.28-2.013l-.09.184-.367-1.005-14.628-8.87c1.188 3.02 4.663 10.79 10.514 14.538.548.457 1.554 1.006 2.743 1.83.73.456 1.645 1.005 2.56 1.645.09 0 .09 0 .182.092.09.092.274.092.366.183 3.565 2.194 7.497 4.57 11.886 7.132l.09-.092.367.365.092.092c.09 0 .09.092.183.092 2.468 1.463 5.028 3.018 7.588 4.48 2.377 1.37 4.754 2.742 7.04 4.205 3.75 2.194 7.497 4.39 10.79 6.31l.365.182 2.65 1.005h-.913c.09.09.182.18.365.272zm132.115 4.662c.09.457.273 1.005.365 1.645.73-.457 3.108-1.828 6.125-3.657 1.28-.73 2.652-1.554 4.206-2.47l-.182-.182.55-.092c.456-.273.913-.55 1.37-.822l-.092-.092 1.19-.55c2.01-1.187 4.204-2.468 6.49-3.84l-.092-.09.457-.274c4.664-2.743 9.875-5.852 15.544-9.234l.274-.184.274-.273.09.09c3.384-2.102 6.676-4.02 9.602-5.76l2.01-1.187.093.092.092-.092c3.84-2.377 7.404-4.57 9.05-5.577 5.76-3.748 9.326-11.428 10.515-14.536l-14.812 8.868c-1.463 2.834-3.383 5.395-5.943 7.77l-1.188 1.19v-.182c-.457.457-1.006.822-1.555 1.188l-10.88 7.04-.092-.092-33.46 21.303zm12.525-4.023c0 .183.09.274.09.55.184.913.46 2.65.824 4.845l.092-.09c1.006-.46 1.92-1.007 3.017-1.464l-.09-.275h.547l.183-.09.366-.184c2.65-1.28 5.484-2.653 8.228-3.933l.366-.184c6.582-3.107 12.525-5.76 15.816-7.223.092 0 .184-.09.274-.09s.09 0 .183-.093l.184-.09h.092c.183-.093.274-.093.366-.185 4.937-2.285 8.502-6.034 10.788-8.96h-.183l.365-.365.55-.73c.548-.732 1.005-1.464 1.37-2.105l-3.2 1.555h.092l-13.257 6.31.092.09-1.372.55-16 7.496-.823.366-8.045 3.748-.365.273-.092-.09-.092.09c-.092.093-.183.093-.273.185l-.093.092zm-150.034 3.84l1.097.55 1.92.914c.366-2.01.64-3.657.823-4.663.092-.273.092-.457.092-.64l-.366-.274-.092.184-.09-.092v.092l-.458-.457c-.274-.184-.55-.275-.73-.457l-11.612-5.486-.092.092-16.183-7.68-13.35-6.22-.273-.182.366-.366-.914-.457c.183.366.457.73.64 1.097l.183.275.09.182c1.373 2.194 4.207 6.126 8.87 9.325l.09-.092.367.366.092.09c.09.092.183.092.183.184 1.28.822 2.468 1.37 3.656 1.828 2.01.823 6.125 2.56 11.154 4.938l.548.274v.09c4.297 1.92 9.052 4.207 13.35 6.22l.64.182v.182h-.002zm136.776-2.103c.092.184.184.457.274.914l33.737-21.303.365-.183 10.058-6.4c.73-.64 1.554-1.28 2.286-1.92l1.097-1.005c2.01-2.012 3.564-4.206 4.754-6.584l-.092-.09.092-.092-.092-.183.273-.183c.275-.64.55-1.188.824-1.83l1.004-2.468-7.59 5.486-.913.64-15.814 11.248-.732.548-13.257 9.418-12.8 9.143-3.475 4.844zm-141.622-12.8l21.303 13.53.64-.64c0-.09.09-.183.09-.183l-3.473-4.753-15.543-10.97.09-.093-13.622-9.6-16.55-11.795-.64-.458h-.09l-4.755-3.383 1.005 2.468c.274.64.55 1.28.823 1.92l.183.092-.09.09c.274.55.64 1.19.914 1.738v-.092l.55 1.006c.09.092.09.183.182.274 1.737 2.56 4.023 4.754 6.583 6.675l7.04 4.39.09-.092.64.457 14.63 9.42zm155.61 147.474h-1.37v-.457c.092-3.473 2.652-3.564 2.652-3.564h.457v1.372h-.458c-.092 0-1.19.09-1.28 2.193v.458zm-146.284 0h-1.372v-.457c0-2.192-1.28-2.192-1.28-2.192h-.457v-1.372h.457s2.56 0 2.65 3.565v.458zm182.125-2.01l-1.005-.275-.183-3.475-2.47-1.828.093-.457-.092-.092h.092l.09-.364 10.15-2.926.182.365.275-.092-.184.275.274.457-7.22 8.412zm-1.553-5.67l1.555 1.098.09 2.103 4.298-4.938-5.943 1.736zm12.617-20.662l-.457-.092-.55-.092-.182-3.475-2.377-1.736v-.913l10.33-2.926.184.366.366-.092-.274.366.184.457-7.224 8.14zm-1.463-5.578l1.647 1.098.092 2.103 4.296-5.03-6.035 1.828zm-37.21-.273l-2.927-1.737-2.834 1.005-.64-.64 3.473-9.966h.366l.09-.273.092.273h.55l2.742 10.972-.457.273-.458.092zm-2.835-3.292l1.92 1.097-1.646-6.4-2.104 5.943 1.83-.64zm34.286-8.595l-.09-.09-.366.09-1.83-3.017-3.016-.456-.274-.914 7.863-7.04.457.183.183-.183-.092.273.458.184-2.835 10.79-.457.18zm-3.38-4.57l1.92.365 1.096 1.92 1.646-6.4-4.663 4.115zm-13.625.822l-2.926-1.737-2.835 1.006-.73-.64 3.474-9.967h.456l.09-.274.093.273h.456l2.743 10.972-.367.183v.09h-.09l-.368.092zm-2.743-3.29l1.92 1.096-1.646-6.4-2.103 5.943 1.83-.64zm-91.884-74.516h-4.847l-1.462-2.834-1.006.274-.273-1.372 2.468-.457.914-.183h-.092l1.372-.274.182-.274.55.184 6.308-1.098.275 1.37-3.75.642 3.11.914-.275 1.37-2.47-.73-1.004 2.468zm-3.932-1.372h3.2l.64-1.554-2.194-.64-2.47.365.824 1.83zm10.148-27.154l-9.875-.09-.092.09-.092-.09h-28.068v-1.372h13.074v-12.16h-13.166v-1.372h28.07l.09-.09.092.09h9.874l.092-.09.092.09h15.268v1.372H186.61l-4.847 6.217 4.754 5.943h14.537v1.37l-15.36.092zm-8.777-1.462h7.77l-3.93-4.938-.093-.09-3.747 5.028zm-14.903 0h13.074l4.847-6.126-4.755-6.034h-13.074v12.16h-.092zm14.903-12.16l3.932 5.028 3.93-4.938h-.09l.09-.09h-7.863zm76.525.914l-.273-.183c-22.767-15.908-49.74-24.32-77.898-24.32-27.154 0-53.303 7.863-75.612 22.766l-.274.184-1.28-.823.64-.366c22.49-15.177 49.006-23.13 76.434-23.13 28.526 0 55.862 8.502 78.903 24.685l.55.365-1.19.822zm11.887-8.138l-.185-.09c-3.383-1.647-5.76-4.756-6.49-8.412-.64-3.018-2.38-5.486-5.12-7.132-2.562-1.554-5.76-1.828-8.687-.914-5.852 2.01-12.344-.914-14.812-6.675-1.097-2.835-3.475-4.938-6.4-5.943-2.925-1.006-6.034-.64-8.686 1.006-5.303 3.2-12.25 1.737-15.91-3.383-1.827-2.56-4.57-4.114-7.495-4.39-3.2-.273-6.218.732-8.32 2.835-4.57 4.298-11.703 4.298-16.274 0-2.284-2.103-5.21-3.108-8.32-2.834-3.016.275-5.76 1.83-7.496 4.39-3.566 5.028-10.515 6.583-15.91 3.383-2.65-1.555-5.76-1.92-8.685-1.006-2.835.914-5.12 3.108-6.4 5.942-2.378 5.76-8.87 8.685-14.813 6.674-2.834-1.006-6.125-.64-8.686.914-2.742 1.463-4.57 4.022-5.12 7.132-.456 2.377-1.553 4.57-3.29 6.31l-.274.272-1.097-.822.365-.365c1.554-1.463 2.65-3.475 3.108-5.578.64-3.383 2.743-6.4 5.668-8.045 3.02-1.737 6.584-2.104 9.784-.914 5.303 1.736 11.062-.823 13.166-5.852 1.372-3.11 4.023-5.67 7.223-6.675 3.29-1.096 6.857-.64 9.783 1.098 4.754 2.926 10.97 1.555 14.08-3.017 2.01-2.833 5.12-4.662 8.594-5.027 3.474-.365 6.857.73 9.326 3.108 4.023 3.75 10.33 3.75 14.354 0 .092-.09.183-.182.183-.182l.183-.184c2.47-2.103 5.577-3.107 8.87-2.742 3.473.365 6.58 2.194 8.593 5.028 3.2 4.48 9.417 5.76 14.08 3.017 2.833-1.828 6.4-2.193 9.782-1.097 3.2 1.006 5.942 3.565 7.223 6.675 2.194 5.12 7.954 7.68 13.166 5.852 3.2-1.098 6.767-.823 9.783.914 2.926 1.737 5.028 4.663 5.67 8.046.548 3.2 2.833 6.035 5.942 7.498l.73.365-1.186.822z"/></svg>